<svg width="146" height="32" fill="none" xmlns="http://www.w3.org/2000/svg"><path d="M.76 28.646V14.681c-.021-.795.273-2.384 1.618-2.384H9.61m17.32-8.943v13.965c.02.795-.273 2.384-1.618 2.384H18.08" stroke="#BFCD15" stroke-width="1.4" stroke-linecap="round"/><ellipse cx=".759" cy="31.162" rx=".759" ry=".838" fill="#BFCD15"/><ellipse cx="26.931" cy=".839" rx=".759" ry=".838" transform="rotate(-180 26.931 .839)" fill="#BFCD15"/><path d="M4.236 19.563h6.649l5.699-7.127h6.997" stroke="#BFCD15" stroke-width="1.4" stroke-linecap="round" stroke-linejoin="round"/><path d="M37.994 22.52c-.245 0-.434-.073-.567-.22-.134-.157-.2-.376-.2-.655v-11.24c0-.279.066-.491.2-.637.144-.146.339-.218.584-.218h3.972c1.269 0 2.242.34 2.921 1.02.69.68 1.035 1.633 1.035 2.86 0 1.238-.345 2.198-1.035 2.878-.679.68-1.652 1.02-2.92 1.02h-3.206v4.317c0 .28-.066.498-.2.656-.122.146-.317.218-.584.218zm.785-6.558h3.004c.868 0 1.519-.213 1.953-.638.445-.437.667-1.069.667-1.894 0-.826-.222-1.446-.667-1.858-.434-.425-1.085-.638-1.953-.638h-3.005v5.028zm13.464 6.558c-.233 0-.423-.055-.567-.165-.145-.121-.267-.303-.367-.546l-4.524-11.276c-.089-.23-.116-.425-.083-.583a.643.643 0 01.25-.382.773.773 0 01.468-.146c.233 0 .406.055.517.164.122.11.228.273.317.492l4.306 10.911h-.584l4.29-10.911c.089-.219.194-.383.317-.492.122-.11.295-.164.517-.164.178 0 .323.049.434.146.123.097.195.23.217.4.033.158.011.347-.067.565l-4.54 11.276c-.089.243-.205.425-.35.546-.134.11-.317.164-.55.164zm7.984-.128c-.245 0-.44-.08-.584-.237-.134-.158-.2-.37-.2-.638V10.333c0-.28.066-.492.2-.638.133-.145.322-.218.567-.218.256 0 .45.073.584.218.134.146.2.358.2.638v10.601h5.308c.234 0 .406.061.518.183.122.121.183.297.183.528 0 .243-.061.431-.183.565-.112.121-.284.182-.518.182h-6.075zm9.089.073a.931.931 0 01-.718-.31c-.189-.206-.283-.468-.283-.783 0-.316.094-.571.283-.765a.96.96 0 01.718-.292c.312 0 .55.097.718.292.178.194.267.449.267.765s-.09.577-.267.783c-.167.206-.406.31-.718.31zm11.569.091c-.523 0-1.03-.049-1.519-.146a6.395 6.395 0 01-1.385-.4 5.153 5.153 0 01-1.168-.675.971.971 0 01-.318-.4.932.932 0 01-.05-.456.925.925 0 01.184-.4c.1-.11.217-.177.35-.201.134-.024.278.024.434.146a5.33 5.33 0 001.603.82c.567.17 1.19.255 1.869.255.98 0 1.697-.195 2.153-.583.467-.389.701-.9.701-1.53 0-.523-.167-.93-.5-1.221-.335-.304-.896-.54-1.686-.71l-1.77-.401c-1.046-.243-1.83-.644-2.353-1.203-.512-.558-.768-1.305-.768-2.24 0-.57.106-1.087.317-1.548a3.49 3.49 0 01.902-1.22c.39-.34.845-.602 1.368-.784a5.453 5.453 0 011.77-.273c.69 0 1.335.103 1.936.31.612.206 1.162.51 1.652.91a.847.847 0 01.284.838.624.624 0 01-.184.364.515.515 0 01-.35.164c-.134.012-.284-.042-.451-.164a4.432 4.432 0 00-1.369-.728 4.771 4.771 0 00-1.535-.237c-.568 0-1.063.097-1.486.291a2.32 2.32 0 00-.968.82c-.222.34-.334.74-.334 1.202 0 .559.156.996.468 1.312.311.316.834.559 1.569.729l1.752.382c1.113.255 1.936.65 2.47 1.184.546.522.818 1.227.818 2.113 0 .559-.105 1.063-.317 1.512-.2.45-.49.838-.868 1.166-.378.316-.84.565-1.385.747a6.155 6.155 0 01-1.836.255zm9.717 0c-.802 0-1.497-.189-2.087-.565-.59-.376-1.046-.91-1.368-1.603-.323-.692-.484-1.506-.484-2.44 0-.705.089-1.337.267-1.895a4.272 4.272 0 01.8-1.458c.346-.4.757-.704 1.236-.91a3.969 3.969 0 011.636-.328c.8 0 1.496.188 2.086.564.59.377 1.046.911 1.369 1.603.322.68.484 1.488.484 2.423a6.06 6.06 0 01-.284 1.913 4.053 4.053 0 01-.785 1.457c-.344.4-.762.71-1.251.93-.479.206-1.019.309-1.62.309zm0-1.312c.49 0 .912-.127 1.268-.382.367-.255.645-.626.835-1.111.2-.486.3-1.087.3-1.804 0-1.069-.217-1.882-.65-2.44-.435-.56-1.019-.839-1.753-.839a2.17 2.17 0 00-1.269.383c-.356.243-.634.607-.834 1.093-.2.486-.3 1.087-.3 1.803 0 1.069.216 1.889.65 2.46.445.558 1.03.837 1.753.837zm8.438 1.312c-.835 0-1.469-.267-1.903-.802-.434-.546-.65-1.33-.65-2.35V10.26c0-.28.066-.486.2-.62.133-.145.317-.218.55-.218.245 0 .434.073.568.219.133.133.2.34.2.619v9.017c0 .631.117 1.105.35 1.42.245.304.59.456 1.035.456h.267l.234-.036c.122-.012.212.024.267.109.056.085.084.255.084.51 0 .23-.05.413-.151.546-.089.122-.239.2-.45.237-.1.013-.2.019-.3.019-.1.012-.201.018-.301.018zm5.371 0c-.657 0-1.208-.134-1.653-.401-.434-.267-.756-.662-.968-1.184-.211-.522-.317-1.178-.317-1.967V14.23c0-.28.061-.486.184-.62.133-.145.322-.218.567-.218.245 0 .434.073.568.219.133.133.2.34.2.62v4.772c0 .753.139 1.311.417 1.675.278.353.718.529 1.319.529.667 0 1.207-.243 1.619-.729.423-.486.634-1.13.634-1.93V14.23c0-.28.061-.486.184-.62.133-.145.322-.218.567-.218.245 0 .434.073.567.219.134.133.201.34.201.62v7.431c0 .57-.245.856-.735.856-.244 0-.434-.072-.567-.218-.122-.146-.184-.358-.184-.638v-1.585l.217.31c-.222.704-.584 1.245-1.085 1.621-.489.365-1.068.547-1.735.547zm9.904 0c-.656 0-1.207-.128-1.652-.383a2.421 2.421 0 01-.985-1.111c-.211-.486-.317-1.08-.317-1.785v-4.481h-1.068c-.2 0-.356-.055-.467-.164a.67.67 0 01-.167-.474c0-.206.055-.364.167-.473.111-.11.267-.164.467-.164h1.068v-1.986c0-.28.067-.486.2-.62.134-.145.323-.218.568-.218.245 0 .428.073.551.219.133.133.2.34.2.62v1.985h2.019c.212 0 .373.054.484.164.112.109.167.267.167.473a.67.67 0 01-.167.474c-.111.11-.272.164-.484.164h-2.019v4.335c0 .668.128 1.172.384 1.512.256.34.679.51 1.268.51.212 0 .39-.018.534-.054a1.23 1.23 0 01.384-.073c.1-.012.184.024.251.109.077.085.116.243.116.473 0 .17-.027.328-.083.474a.42.42 0 01-.284.273 3.031 3.031 0 01-.534.128 2.842 2.842 0 01-.601.073zm3.492-.073a.683.683 0 01-.551-.237c-.133-.158-.2-.376-.2-.656v-7.268c0-.291.067-.51.2-.656a.683.683 0 01.551-.236c.245 0 .434.079.568.236.133.146.2.365.2.656v7.268c0 .28-.067.498-.2.656-.123.158-.312.237-.568.237zm0-11.02c-.3 0-.54-.086-.718-.256-.166-.182-.25-.419-.25-.71 0-.316.084-.553.25-.71.178-.17.418-.256.718-.256.323 0 .562.085.718.255.167.158.25.395.25.71 0 .292-.083.53-.25.711-.156.17-.395.255-.718.255zm6.665 11.093c-.801 0-1.497-.189-2.087-.565-.589-.376-1.046-.91-1.368-1.603-.323-.692-.484-1.506-.484-2.44 0-.705.089-1.337.267-1.895a4.257 4.257 0 01.801-1.458c.345-.4.757-.704 1.235-.91a3.97 3.97 0 011.636-.328c.801 0 1.496.188 2.086.564.59.377 1.046.911 1.369 1.603.322.68.484 1.488.484 2.423 0 .704-.095 1.342-.284 1.913a4.064 4.064 0 01-.784 1.457c-.345.4-.763.71-1.252.93a4.05 4.05 0 01-1.619.309zm0-1.312c.489 0 .912-.127 1.268-.382.367-.255.646-.626.835-1.111.2-.486.3-1.087.3-1.804 0-1.069-.217-1.882-.651-2.44-.434-.56-1.018-.839-1.752-.839a2.17 2.17 0 00-1.269.383c-.356.243-.634.607-.834 1.093-.201.486-.301 1.087-.301 1.803 0 1.069.217 1.889.651 2.46.445.558 1.029.837 1.753.837zm6.635 1.276c-.233 0-.417-.073-.55-.22-.134-.145-.201-.358-.201-.637v-7.432c0-.28.067-.486.201-.62.133-.145.317-.218.55-.218.234 0 .412.073.535.219.133.133.2.34.2.62v1.493l-.184-.274c.234-.692.612-1.214 1.135-1.566a3.23 3.23 0 011.819-.528c.657 0 1.197.127 1.619.382.423.255.74.644.952 1.166.211.522.317 1.184.317 1.986v4.772c0 .28-.067.492-.2.638-.123.146-.306.218-.551.218-.245 0-.434-.072-.568-.218-.133-.146-.2-.358-.2-.638v-4.681c0-.79-.139-1.366-.417-1.73-.278-.365-.723-.547-1.335-.547-.713 0-1.286.243-1.72.728-.422.474-.634 1.118-.634 1.931v4.3c0 .57-.256.855-.768.855zm11.605.036a6.587 6.587 0 01-1.519-.182 4.396 4.396 0 01-1.419-.674.768.768 0 01-.267-.31.945.945 0 01-.05-.383.732.732 0 01.15-.346.414.414 0 01.284-.164.517.517 0 01.384.091 4.8 4.8 0 001.252.565 4.7 4.7 0 001.218.164c.612 0 1.074-.121 1.386-.364.311-.243.467-.565.467-.966 0-.34-.106-.6-.317-.783-.201-.194-.518-.34-.952-.437l-1.552-.346c-.69-.17-1.213-.45-1.569-.838-.345-.401-.517-.911-.517-1.53 0-.547.133-1.02.4-1.421a2.662 2.662 0 011.152-.947c.49-.219 1.052-.328 1.686-.328.489 0 .951.073 1.385.218.445.134.846.34 1.202.62a.54.54 0 01.25.328c.045.121.05.248.017.382a.608.608 0 01-.15.31.537.537 0 01-.301.164.664.664 0 01-.4-.11 3.037 3.037 0 00-1.002-.51 3.2 3.2 0 00-1.001-.164c-.601 0-1.057.128-1.369.383-.3.255-.45.589-.45 1.002 0 .316.089.577.267.783.189.206.484.358.884.455l1.552.347c.724.17 1.269.443 1.636.82.367.364.551.861.551 1.493 0 .826-.301 1.482-.901 1.967-.59.474-1.386.71-2.387.71z" fill="#000"/></svg>